<?xml version="1.0" standalone="no"?>
<!DOCTYPE svg PUBLIC "-//W3C//DTD SVG 20010904//EN"
 "http://www.w3.org/TR/2001/REC-SVG-20010904/DTD/svg10.dtd">
<svg version="1.0" xmlns="http://www.w3.org/2000/svg"
 width="700.000000pt" height="700.000000pt" viewBox="0 0 700.000000 700.000000"
 preserveAspectRatio="xMidYMid meet">
<metadata>
Created by potrace 1.11, written by Peter Selinger 2001-2013
</metadata>
<g transform="translate(0.000000,700.000000) scale(0.100000,-0.100000)"
fill="#000000" stroke="none">
<path d="M3299 6996 c-2 -2 -42 -6 -89 -9 -109 -8 -329 -39 -400 -57 -19 -5
-51 -12 -70 -15 -116 -20 -366 -98 -555 -175 -248 -100 -320 -147 -363 -232
l-22 -44 -71 -1 c-86 -2 -134 -23 -265 -120 -254 -189 -476 -397 -644 -603
-25 -30 -48 -57 -51 -60 -14 -12 -150 -201 -193 -270 -27 -41 -57 -87 -67
-102 -10 -15 -19 -29 -19 -32 0 -3 -14 -29 -31 -58 -102 -172 -231 -472 -294
-683 -47 -157 -63 -213 -70 -250 -3 -16 -8 -41 -11 -55 -40 -190 -70 -422 -68
-535 1 -70 23 -134 61 -176 12 -14 10 -22 -16 -65 -34 -56 -48 -109 -46 -174
2 -52 15 -195 20 -219 2 -9 6 -44 10 -76 6 -49 41 -226 61 -310 3 -11 7 -30
10 -43 18 -86 113 -367 168 -497 101 -240 297 -575 443 -760 13 -16 27 -34 31
-40 93 -125 313 -353 478 -496 110 -96 318 -251 367 -273 48 -23 113 -35 157
-29 37 5 39 4 58 -38 39 -85 108 -132 332 -227 234 -99 528 -184 790 -227 92
-15 137 -21 275 -34 89 -9 592 -7 630 2 11 3 49 8 85 12 310 32 674 133 1000
277 179 79 227 115 273 208 33 68 31 196 -5 265 -24 46 -224 394 -318 555 -45
76 -361 624 -398 690 -14 25 -71 124 -127 220 -56 96 -189 326 -295 510 -106
184 -233 404 -282 488 -48 85 -88 155 -88 156 0 1 270 2 599 2 l599 0 1 -318
1 -319 25 -53 c43 -90 123 -139 230 -140 83 0 126 18 190 79 55 54 75 116 75
234 1 77 4 90 28 125 39 56 89 80 152 71 32 -4 62 -16 81 -32 61 -52 60 -46
62 -496 2 -407 2 -412 25 -454 75 -142 282 -137 358 7 17 33 18 75 19 665 l0
630 300 1 c194 1 315 5 342 13 95 26 188 120 214 214 9 35 6 212 -5 275 -2 9
-7 44 -10 77 -9 72 -61 338 -82 415 -44 157 -97 318 -134 405 -5 11 -19 45
-31 75 -40 99 -183 373 -254 485 -230 368 -526 689 -885 959 -157 118 -222
149 -309 149 l-67 0 -19 41 c-33 68 -84 110 -201 165 -199 96 -544 214 -714
245 -14 2 -59 11 -100 19 -41 9 -95 19 -120 22 -25 4 -54 9 -65 11 -10 2 -49
6 -85 10 -36 3 -76 8 -90 10 -28 6 -516 15 -521 10z"/>
</g>
</svg>
